<svg xmlns="http://www.w3.org/2000/svg" width="683.574" height="499.88" viewBox="0 0 683.574 499.88">
  <g id="Group_18" data-name="Group 18" transform="translate(21.022 227.428) rotate(-25)" opacity="0.16">
    <path id="Path_21" data-name="Path 21" d="M.005,178.39c2.094-4.225,2.144-8.955,3.279-13.408,1.715-6.71,3.242-13.61,7.48-19.1,4.011-5.2,7.845-10.6,12.134-15.527,9.409-10.809,21.215-17.394,35.481-20.559,23.851-5.3,47.678-10.847,71.844-14.316,20.875-3,39.9-11.175,59.244-18.529,17.621-6.7,35.607-12.449,52.824-20.219,3.153-1.425,6.243-2.056,9.687-4.276,1.375-.883,24.924-11.692,26.387-12.411,4.251-2.106,8.59-4.024,12.853-6.117,15.439-7.58,30.852-15.224,46.29-22.8a16.4,16.4,0,0,0,4.97-3.872A22.546,22.546,0,0,1,355.7.154c4.162-.681,7.644.769,9.775,4.377,7.568,12.777,13.307,26.235,14.278,41.308a7.816,7.816,0,0,1,0,2.485c-1.8,6.407.82,11.074,5.424,15.287,1.627,1.488,3.027,2.851,5.31,3.166,24.961,3.532,50,6.092,75.086,1.652,15.4-2.724,30.587-6.609,45.71-10.608,18-4.768,35.9-9.9,53.4-16.3,8.249-3.015,15.855-7.53,24.356-9.964a35.486,35.486,0,0,1,24.684,1.35c4.73,2.056,7.366,5.852,8.892,10.532a66.177,66.177,0,0,1,2.573,26.374c-.2,2.333-.151,4.251,1.249,6.344,2.169,3.254,1.728,7.316,2.371,11.024a221.7,221.7,0,0,1,3.115,47.829c-.114,2.523,1.841,34.055,1.917,35.544.807,14.139,2.5,28.266-.076,42.443-1.186,6.534-1.98,13.105-4.263,19.412-2.674,7.379-7.858,11.478-15.476,13.105a198.96,198.96,0,0,1-25.731,3.368c-13.483,1.085-27,1.375-40.513,1.678-54.11,1.211-108.246-.265-162.356.681-28.695.5-57.415.757-86.1,2.031-14.329.643-28.657,1.059-42.986,1.614-17.658.681-35.329.681-52.975-.278-15.035-.82-30.019-2.384-44.941-4.44-18.087-2.5-36.162-5.058-54.009-8.993-15.514-3.418-30.965-7.1-46.2-11.642-11.591-3.456-23.271-6.672-34.27-11.806-7.833-3.658-15.8-7.265-21.051-14.707-.946-1.337-1.451-3.015-2.914-3.986v-20.66Zm625.372-38.7a200.4,200.4,0,0,0-2.27-47.11c-.189-1.06-.946-6.042-1.261-7.278-.391-1.488,0-3.7-.946-5.234-.669-1.072-1.93-.429-2.888.088-6.382,3.393-12.865,6.609-19.109,10.229-13.559,7.871-24.192,18.5-30.763,33-4.793,10.582-9.523,21.19-13.534,32.1q-2.762,7.511-5.361,15.073c-.277.807-1.362,2.169.82,2.169,2.939,0,5.878.076,8.8-.038,13.383-.53,26.778-.757,40.122-1.842,6.912-.568,13.963-.883,20.711-2.964,2.472-.757,4.831-1.35,5.07-4.566.265-3.469.555-22.514.631-23.612ZM375.7,171.97c-3.7-3.67-7.984-5.815-12.336-7.833-.479-.214-3.986-1.829-4.856-2.283a58.047,58.047,0,0,0-9.51-3.973c-14.051-4.326-28.48-7.341-42.355-12.247-7.48-2.649-15.186-4.831-21.682-9.662-9.725-7.24-10.936-17.1-3.292-26.488a39.991,39.991,0,0,1,6.37-6.193c10.292-8.085,21.707-14.48,32.693-21.505,11.491-7.328,23.309-14.152,33.891-22.88,4.061-3.355,5.033-7.555,4.907-12.336-.29-11.188-4.7-20.9-10.847-30.007-1.5-2.233-2.838-2.573-5.247-1.35q-20.017,10.1-40.185,19.916c-20.9,10.191-41.825,20.345-63.192,29.565-17.444,7.53-35.582,13.181-53.2,20.257C173.777,90.2,160.7,95.761,146.9,98.826c-13.761,3.065-27.736,5.134-41.6,7.669-17.734,3.254-35.367,7.026-52.761,11.793-4.579,1.261-9.107,2.7-13.168,5.3-5.689,3.633-6.067,8.665-.9,13.055A27.319,27.319,0,0,0,48.6,141.686c9.309,2.8,18.731,5.083,28.216,7.177,17.015,3.771,34.182,6.622,51.386,9.346,8.3,1.312,16.712,2.018,25.012,3.317,11.011,1.728,22.111,2.75,33.2,3.809,14.619,1.387,29.313,2.258,43.982,2.964,22.628,1.085,45.269,2.018,67.909,2.674,19.336.568,38.672.694,58.008.959,6.458.088,12.928.013,19.386.013ZM183.817,189.982c.744.82,1.085,1.274,1.5,1.64,6.95,6.067,11.6,13.66,15.06,22.149a129.141,129.141,0,0,1,8.11,30.852c.467,3.292,1.778,4.3,5.033,4.276,18.377-.2,36.767.328,55.145-.631,19.412-1.009,38.848-1.6,58.285-2.119q35.569-.946,71.151-1.463c64.176-.933,128.389,1.98,192.527-2.207a182.765,182.765,0,0,0,22.527-3.065c5.739-1.1,9.056-4.553,10.835-10.027a96.651,96.651,0,0,0,2.75-12.121c1.652-8.88,1.5-17.936,2.6-26.879.164-1.362-.366-2.384-2.132-1.514-7.29,3.62-15.325,4.288-23.158,5.058q-28.493,2.781-57.163,2.964c-44.133.252-88.279.732-132.413-.467-17.192-.467-34.409.088-51.575-1.06-6.647-.441-13.244.177-19.878-.177-15.729-.832-31.495-1.173-47.249-1.7-21.922-.744-43.856-1.3-65.765-2.333-9.359-.441-18.731-.252-28.089-1.047-5.827-.5-11.73-.088-18.112-.088ZM319.824,130.3c11.819,4.566,24.167,7.517,35.947,12.121.984.378,6.244,2.649,7.152,3.065,3.67,1.665,7.391,3.216,11.011,4.97,10.091,4.907,19.563,10.746,26.992,19.323a7.78,7.78,0,0,0,6.395,2.977c9.725.063,19.449.24,29.174.315,35.241.3,70.482.113,105.723.164,2.573,0,4.061-.744,4.957-3.418A451.49,451.49,0,0,1,563.8,127.458c6.13-13.483,13.938-26.576,26.639-34.926,2.169-1.425,26.059-14.442,26.185-14.757,2.359-2.056,1.98-4.061,2.106-6.382.442-8.085.5-16.157-1.526-24.053-.795-3.09-1.867-6.18-4.97-7.9-1.06-.58-2.233-1.274-2.977.353-3.128,6.836-9.548,9.763-15.7,12.714a321.112,321.112,0,0,1-71.416,24.608c-14.732,3.166-29.54,5.726-44.663,5.789-12.449.05-24.9-.025-37.347-.454a432.468,432.468,0,0,0-44.108.416,46.387,46.387,0,0,0-16.473,3.9c-23.9,10.91-46.2,24.671-68.439,38.558-1,.618-2.46.883-2.737,2.409,1.488.908,5.815.555,11.415,2.586ZM200.378,247.964c5.928.177,6.521-.164,5.928-3.733-2.233-13.383-5.335-26.538-12.134-38.445-5.953-10.431-14.139-17.911-26.626-19.916-15.073-2.422-30.057-5.461-45.13-7.845-15.918-2.51-31.785-5.171-47.476-8.829-12.815-2.989-25.617-6.054-37.827-11.087-6.218-2.56-12.764-4.78-16.511-11.062-.757-1.274-1.451-.858-2.258-.139a18.422,18.422,0,0,0-4.49,6.344c-5.752,12.928-6.811,26.79-7.921,40.627-.227,2.825,1.463,4.932,3.279,6.862,5.07,5.373,11.39,8.854,18.075,11.755,13.534,5.89,27.787,9.586,41.964,13.483,16.12,4.427,32.3,8.627,48.762,11.617,11.428,2.081,22.918,3.733,34.434,5.335,16.221,2.258,32.5,3.658,47.943,5.033Zm312.2-66.812c24.217,1.148,48.384-.479,72.576-.858,9.7-.151,19.4-1.287,29.086-2.094a50,50,0,0,0,11.049-2.636c3.279-1.059,2.422-3.784,1.791-5.966-.732-2.573-2.51-1.2-4.024-.605a26.707,26.707,0,0,1-4.692,1.589,222.222,222.222,0,0,1-24.331,2.888c-19.878,1.463-39.82,1.678-59.736,1.968-24.318.353-48.636,0-72.967-.328-41.6-.542-83.2-.265-124.794-1.324-29.162-.744-58.336-1.249-87.5-2.384-9.119-.353-18.289-.265-27.371-1.034-19.361-1.627-38.748-2.838-58.058-5.184-13.874-1.678-27.736-3.481-41.535-5.6-17.078-2.636-34.093-5.714-50.944-9.636-8.539-1.993-17.1-3.885-25.352-6.937-4.743-1.753-9.119-4.024-11.907-8.539-.618-1.009-.631-2.914-2.46-2.523a6.682,6.682,0,0,0-4.616,3.62c-.795,1.577.315,2.712,1.312,3.746a25.751,25.751,0,0,0,6.723,4.629c13.433,7.164,28.039,10.86,42.708,14.24,20.913,4.818,42.153,7.858,63.406,10.608,14.442,1.867,28.972,3.229,43.5,4.3q30.858,2.27,61.754,3.759c19.424.959,38.861,1.614,58.3,2.169,20.61.593,41.22.946,61.83,1.324,28.115.517,56.229-.214,84.357.668,20.622.643,41.27.126,61.918.126Zm-112.61-9.018a26.989,26.989,0,0,0-6.143-6.584c-9.687-8.06-20.837-13.61-32.365-18.4-19.21-7.984-39.227-13.5-59.37-18.541-7.82-1.968-9.4-6.344-4.175-12.449,6.243-7.316,14.3-12.411,22.338-17.368,13.938-8.577,27.938-17.015,40.513-27.585,9.624-8.085,14.568-17.9,12.134-30.713A98.914,98.914,0,0,0,361.548,10.32c-2.535-4.49-4.049-4.843-8.665-2.573-.744.366-1.425.858-2.182,1.211-2.724,1.261-3.342,2.586-1.223,5.323A61.086,61.086,0,0,1,361.51,41.7c1.223,7.253.568,13.988-5.7,19.058a149.628,149.628,0,0,1-13.471,9.9c-14.82,9.409-29.691,18.756-44.5,28.2a68.112,68.112,0,0,0-13.13,10.292c-9.182,9.674-7.732,20.295,3.986,26.677,13.029,7.089,27.333,10.734,41.51,14.543,13.294,3.582,26.639,6.9,38.558,14.127,6.925,4.2,13.774,8.325,22.388,8.135,2.787-.063,5.474-1.06,8.829-.5ZM22.242,144.713a6.711,6.711,0,0,0,3,4.679c5.991,4.717,13.092,7.152,20.181,9.472,24.066,7.883,48.9,12.449,73.825,16.511,15.905,2.6,31.785,5.272,47.627,8.211,4.339.807,8.363,2.813,12.7,3.191,8.022.694,16.082,1.1,24.142,1.337,14.934.454,29.868.719,44.789,1.577,25.1,1.451,50.251,1.223,75.364,2.624,9.964.555,20.055.467,30.082.643,20.042.366,40.072,1.2,60.1,1.413,32.025.353,64.05,1.059,96.074.479,21.707-.391,43.4-.05,65.1-1.387,15.148-.933,30.3-1.438,45.218-4.541a14.051,14.051,0,0,0,5.625-2.069c.946-.681,1.665-1.589,1.236-2.7-.605-1.564-1.816-.58-2.712-.277-8.072,2.737-16.46,3.469-24.873,3.759-13.156.441-26.336.341-39.5.555-39.139.656-78.3.58-117.454,1.324-23.448.441-46.933-1.173-70.407-1.753-11.831-.29-23.687,0-35.493-.631-17.9-.959-35.809-1-53.707-1.387-24.306-.542-48.611-.656-72.891-2.195q-26.45-1.684-52.748-4.654c-21.3-2.409-42.557-5.26-63.621-9.447-15.7-3.128-31.344-6.5-46.606-11.327-8.917-2.825-17.885-5.726-25.088-13.408Zm523.7,41.3c23.132-.05,46.278.441,69.334-2.081a33.155,33.155,0,0,0,10.557-2.977c1.022-.479,1.867-1.3,1.451-2.523-.467-1.375-1.6-.631-2.422-.429-1.488.353-2.914,1.009-4.415,1.3-16.952,3.368-34.245,3.532-51.361,3.834-40.11.732-80.245.4-120.367.227-20.875-.088-41.75-.845-62.624-1.16-10.406-.151-20.812.114-31.23,0-24.318-.265-48.636-.542-72.929-1.715-16.233-.782-32.491-.757-48.687-2.106-11.465-.946-22.969-1.009-34.434-2.094-14.871-1.413-29.817-2.094-44.651-3.8-17.293-1.968-34.56-4.238-51.739-7.253-17.066-3-34.005-6.458-50.5-11.806-9.031-2.926-17.974-6.193-25.277-12.651-.555-.492-1.135-1.539-2.056-.694a2.283,2.283,0,0,0-.479,2.333c.706,2.624,2.737,4.1,4.869,5.424,8.161,5.058,17.192,7.972,26.361,10.444q21.455,5.771,43.339,9.788c15.628,2.863,31.331,5.159,47.085,7.126,10.923,1.362,21.922,2.321,32.882,3.443,16.17,1.652,32.353,3.242,48.561,3.708,20.635.593,41.27.795,61.905,1.476,15.653.517,31.318.631,46.984.9,7.063.126,14.165-.24,21.2.341,17.52,1.451,35.09,1.249,52.622,1.577,45.332.832,90.676.139,136.008-.656ZM388.112,73.159c3.052,3.191,4.124,7.189,8.413,7.089,21.354-.479,42.708,0,64.062-.164,12.449-.1,24.924.858,37.322-.87q14.947-2.081,29.641-5.575A309.829,309.829,0,0,0,597.5,48a34.43,34.43,0,0,0,6.168-4.175c1.7-1.4,3.91-3.052,2.863-5.588-.959-2.308-3.67-2.005-5.663-1.968a40.266,40.266,0,0,0-15.539,3.393c-9.321,4.124-18.642,8.224-28.342,11.453-21.846,7.253-44.07,13.143-66.433,18.579-16.738,4.074-33.538,7.606-50.881,7.581a305.766,305.766,0,0,1-39.012-2.548c-3.822-.492-7.644-.946-12.55-1.564Zm-84.256,53.568c1.11.164,2.119-.744,3.2-1.425,17.734-11.213,35.683-22.073,54.211-31.924,9.17-4.881,18.2-10.254,28.682-12.109,2.018-.353,1.047-1.425.353-2.22-4.982-5.714-10.027-11.39-15-17.116-1.577-1.829-2.624-1.3-3.86.4-6.988,9.7-16.41,16.712-26.2,23.208-9.674,6.42-19.689,12.323-29.389,18.705-5.916,3.9-11.957,7.732-16.41,13.458-1.3,1.678-3.015,3.368-1.955,5.7,1.123,2.472,3.734,2.661,6.344,3.3Z" transform="translate(-36.36 28.284)"/>
    <path id="Path_22" data-name="Path 22" d="M94.018,79.39c.341.139.681.265,1.022.4a4.554,4.554,0,0,1-.782.618c-.126.063-.366-.076-.568-.126.1-.29.2-.58.315-.9Z" transform="translate(24.488 20.748)"/>
  </g>
</svg>
