<svg xmlns="http://www.w3.org/2000/svg" xmlns:xlink="http://www.w3.org/1999/xlink" width="1244.687" height="152.596" viewBox="0 0 1244.687 152.596">
  <defs>
    <clipPath id="clip-path">
      <rect id="Rectangle_5" data-name="Rectangle 5" width="1244.687" height="152.596" fill="#6e4e3a"/>
    </clipPath>
  </defs>
  <g id="Group_11" data-name="Group 11" transform="translate(-73.606 -14.023)">
    <g id="Group_9" data-name="Group 9" transform="translate(73.606 14.023)" clip-path="url(#clip-path)">
      <path id="Path_1" data-name="Path 1" d="M36.762,100.309q-.369-2.365-.923-5.449t-1.221-6.377c-.44-2.187-.914-4.417-1.411-6.675s-1-4.374-1.51-6.353L19.373,27.235a28.35,28.35,0,0,0-4.635,4.588,36.458,36.458,0,0,0-3.555,5.364,49.746,49.746,0,0,0-2.751,5.979q-1.2,3.125-2.362,6.349l-.44.114L0,27.614,58.563,12.639l5.629,22.019-.44.114q-2.464-2.3-5.07-4.455a56.285,56.285,0,0,0-5.336-3.911,37.212,37.212,0,0,0-5.7-3,28.536,28.536,0,0,0-6.263-1.8L53.853,70.374q1.555,6.05,3.57,12.574T61.2,94.059Z" transform="translate(0 47.2)" fill="#6e4e3a"/>
      <path id="Path_2" data-name="Path 2" d="M30.361,95.426q-.178-2.983-.653-6.543t-1.15-7.248q-.682-3.693-1.482-7.409t-1.468-6.832q-.455-2.109-1.307-6.055t-1.965-8.872Q21.207,47.531,20,42.16q-1.221-5.376-2.367-10.183t-2.211-8.65a56.685,56.685,0,0,0-1.8-5.657l20.514-6.742L42.533,49.92l.445-.095a26.44,26.44,0,0,1,.492-6.619,18.187,18.187,0,0,1,2.287-5.837,15.507,15.507,0,0,1,4.356-4.6,17.84,17.84,0,0,1,6.614-2.76,25.6,25.6,0,0,1,10.316-.421,15.282,15.282,0,0,1,7.177,3.4,18.62,18.62,0,0,1,4.616,6.325,39.966,39.966,0,0,1,2.708,8.252q.668,3.11,1.624,7.551t2.1,9.2q1.136,4.751,2.343,9.544t2.4,8.725L67.795,87.368q-.391-3.984-1.155-8.877t-1.69-9.743q-.93-4.857-1.889-9.3t-1.624-7.551a20.011,20.011,0,0,0-1.666-5.047,8.825,8.825,0,0,0-2.1-2.741,4.481,4.481,0,0,0-2.49-1.037,9.963,9.963,0,0,0-2.916.223,8.722,8.722,0,0,0-6.737,5.4q-1.747,4.332-.843,11.225l.7,3.219q.668,3.11,1.458,6.775t1.7,7.367q.909,3.693,1.946,7.135t2.093,6.23Z" transform="translate(50.88 40.81)" fill="#6e4e3a"/>
      <path id="Path_3" data-name="Path 3" d="M45.7,40.267A31.3,31.3,0,0,0,48.341,46.2a16.948,16.948,0,0,0,3.972,4.7,14.605,14.605,0,0,0,5.648,2.789,17.507,17.507,0,0,0,7.523.076,18.448,18.448,0,0,0,6.6-2.415A18.7,18.7,0,0,0,76.4,47.738a15.64,15.64,0,0,0,2.4-3.669,16.829,16.829,0,0,0,.971-2.6c.592-.109,1.236.45,1.917,1.671a14.586,14.586,0,0,1,1.51,4.805,24.867,24.867,0,0,1,.1,6.623A17.953,17.953,0,0,1,81,61.624a19.114,19.114,0,0,1-5.757,6.131,25.772,25.772,0,0,1-10.321,3.9,37.224,37.224,0,0,1-13.7.237A23.894,23.894,0,0,1,33.854,58.935a41.584,41.584,0,0,1-3.868-11.769,39.869,39.869,0,0,1-.492-10.652A24.166,24.166,0,0,1,40.2,18.229a33.162,33.162,0,0,1,13.18-4.995,33.17,33.17,0,0,1,10.075-.5,18.689,18.689,0,0,1,7.168,2.277,12.864,12.864,0,0,1,4.559,4.427A17.015,17.015,0,0,1,77.4,25.269a19.792,19.792,0,0,1,.137,6.5,14.709,14.709,0,0,1-2.173,5.823,14.434,14.434,0,0,1-4.881,4.578,23.593,23.593,0,0,1-7.987,2.779,20.014,20.014,0,0,1-9.876-.336,14.264,14.264,0,0,1-6.685-4.389Zm-1.6-6.292a4.908,4.908,0,0,0,1.629,2.59,9.712,9.712,0,0,0,2.845,1.676A11.434,11.434,0,0,0,52,39a12.948,12.948,0,0,0,3.38-.151,11.335,11.335,0,0,0,8.152-5.691,12.764,12.764,0,0,0,1.477-4.545,15.636,15.636,0,0,0-.114-4.772,10.658,10.658,0,0,0-3.863-6.633,8.748,8.748,0,0,0-7.362-1.723,11.6,11.6,0,0,0-4.294,1.766,11.428,11.428,0,0,0-3.489,3.693A15.864,15.864,0,0,0,43.9,26.5a21.3,21.3,0,0,0,.2,7.471" transform="translate(109.566 46.836)" fill="#6e4e3a"/>
      <path id="Path_4" data-name="Path 4" d="M57.737,88.926q.05-2.983-.151-6.571t-.6-7.319c-.26-2.481-.563-4.985-.909-7.5s-.658-4.824-.942-6.922q-.291-2.138-.838-6.136t-1.288-9q-.739-5-1.539-10.453T49.883,24.691Q49.1,19.805,48.34,15.9a57.018,57.018,0,0,0-1.359-5.781L67.949,4.968,73.342,44.48l.45-.062a26.324,26.324,0,0,1,1-6.557,18.211,18.211,0,0,1,2.727-5.648,15.432,15.432,0,0,1,4.692-4.251,17.86,17.86,0,0,1,6.8-2.249,25.5,25.5,0,0,1,10.316.369,15.221,15.221,0,0,1,6.9,3.929,18.735,18.735,0,0,1,4.119,6.661,39.852,39.852,0,0,1,2.069,8.436q.433,3.153,1.046,7.655t1.387,9.327q.774,4.829,1.61,9.7t1.733,8.882L95.678,83.747q-.092-4-.478-8.934t-.942-9.852q-.561-4.907-1.169-9.417t-1.046-7.651a19.954,19.954,0,0,0-1.278-5.16,8.946,8.946,0,0,0-1.884-2.9,4.454,4.454,0,0,0-2.4-1.217,9.881,9.881,0,0,0-2.921,0,8.715,8.715,0,0,0-7.135,4.872q-2.074,4.183-1.695,11.126l.45,3.267q.426,3.153.933,6.865t1.136,7.471q.625,3.764,1.4,7.267t1.614,6.372Z" transform="translate(175.441 18.554)" fill="#6e4e3a"/>
      <path id="Path_5" data-name="Path 5" d="M75.6,23.789q-6.1.7-9.918-1.657a8.878,8.878,0,0,1-4.337-6.874A9.162,9.162,0,0,1,63.987,7.4q3.174-3.224,8.929-3.892,5.866-.675,9.53,1.761a9.349,9.349,0,0,1,4.185,7.064A9.059,9.059,0,0,1,84.145,20,13.489,13.489,0,0,1,75.6,23.789M70.9,86.1q.135-2.762.024-6.235t-.417-7.045q-.3-3.572-.705-7.125c-.275-2.372-.53-4.569-.762-6.6s-.492-4.232-.762-6.6-.592-4.753-.942-7.154-.762-4.753-1.217-7.068-.947-4.427-1.477-6.349l22.317-4.862q-.121,2.99.014,6.571t.45,7.385q.327,3.792.748,7.461t.8,6.945q.369,3.153.8,6.884t.98,7.494q.554,3.764,1.245,7.291t1.482,6.405Z" transform="translate(228.81 12.572)" fill="#6e4e3a"/>
      <path id="Path_6" data-name="Path 6" d="M72.893,69.5a9.973,9.973,0,0,1-1.676-3.148,16.923,16.923,0,0,1-.829-3.8,13.874,13.874,0,0,1,.227-4.133,9.654,9.654,0,0,1,4.611-6.557,10.878,10.878,0,0,1,4.711-1.43,14.2,14.2,0,0,1,8.1,1.719,67.624,67.624,0,0,1,7.835,4.829q3.806,2.713,7.158,4.9a9.7,9.7,0,0,0,6.178,1.908,5.351,5.351,0,0,0,3.437-1.648,4.454,4.454,0,0,0,1.179-3.712,9.4,9.4,0,0,0-3.773-7.054,28.449,28.449,0,0,0-8.091-3.948q-4.772-1.527-10.25-2.708A51.971,51.971,0,0,1,81.4,41.385a25.43,25.43,0,0,1-8.276-5.818q-3.437-3.657-4.057-9.989a11.77,11.77,0,0,1,1.307-7.092A15.116,15.116,0,0,1,75.123,13.4a26.544,26.544,0,0,1,7.267-3.333,45.691,45.691,0,0,1,8.74-1.709,93.944,93.944,0,0,1,10.524-.341A95.343,95.343,0,0,0,115.1,7.156l-.885,20.178-.563.052q-1.747-2.677-4.218-5.747a38.111,38.111,0,0,0-5.568-5.624,27.42,27.42,0,0,0-6.737-4.081,15.652,15.652,0,0,0-7.7-1.131q-8.252.81-7.58,7.7a5.563,5.563,0,0,0,3.172,4.431,33.641,33.641,0,0,0,7.12,2.784q4.225,1.193,9.2,2.471a47.5,47.5,0,0,1,9.3,3.432,24.051,24.051,0,0,1,7.395,5.615,15.391,15.391,0,0,1,3.622,9q.8,8.145-3.574,13.706T104.67,66.4a29.546,29.546,0,0,1-5.823,0c-1.917-.194-3.844-.4-5.766-.634s-3.83-.44-5.714-.639a28.964,28.964,0,0,0-5.766-.009,17.221,17.221,0,0,0-5.018,1.231A7.952,7.952,0,0,0,72.893,69.5" transform="translate(257.621 26.724)" fill="#6e4e3a"/>
      <path id="Path_7" data-name="Path 7" d="M84.535,21.258l-4.644.369-.142-1.813L102.422,3.883l1.25-.095,1.075,13.587,11.211-.885.18,2.263-11.211.89,2.694,34.092a17.717,17.717,0,0,0,.535,3.1,7.163,7.163,0,0,0,1.288,2.632,5.714,5.714,0,0,0,2.187,1.709,6.668,6.668,0,0,0,3.224.426,14.078,14.078,0,0,0,1.695-.246,13.011,13.011,0,0,0,2-.615,20.08,20.08,0,0,1-4.161,10.075q-3.373,4.2-9.942,4.72a15.47,15.47,0,0,1-8.072-1.188,13,13,0,0,1-5.132-4.379,18.9,18.9,0,0,1-2.8-6.5,51.1,51.1,0,0,1-1.165-7.546Z" transform="translate(297.806 14.147)" fill="#6e4e3a"/>
      <path id="Path_8" data-name="Path 8" d="M120.591,65.16a32.94,32.94,0,0,1-13.355-1.643A26.881,26.881,0,0,1,97.483,57.5a26.582,26.582,0,0,1-6.14-9.364,37.826,37.826,0,0,1-2.523-11.689,35.8,35.8,0,0,1,1.127-11.679,24.217,24.217,0,0,1,5-9.516,25.649,25.649,0,0,1,9-6.576A36.921,36.921,0,0,1,117.03,5.731,36.557,36.557,0,0,1,130.263,7.1a24.323,24.323,0,0,1,9.606,5.515,25.513,25.513,0,0,1,6,8.976,36.7,36.7,0,0,1,2.519,11.627,37.415,37.415,0,0,1-1.113,11.85,27.075,27.075,0,0,1-4.872,9.909A25.466,25.466,0,0,1,133.548,62a33.425,33.425,0,0,1-12.958,3.163M126.1,62.1a2.987,2.987,0,0,0,2.424-1.34,8.27,8.27,0,0,0,1.179-3.091,23.739,23.739,0,0,0,.4-3.835c.033-1.326.019-2.523-.047-3.579a68.831,68.831,0,0,0-1.25-9.488q-.966-4.836-2.386-9.478a75.215,75.215,0,0,0-3.257-8.74,47.8,47.8,0,0,0-3.9-7.163,22.985,22.985,0,0,0-4.157-4.82,5.943,5.943,0,0,0-4.138-1.629,3,3,0,0,0-2.367,1.335,9.077,9.077,0,0,0-1.359,2.987,15.77,15.77,0,0,0-.516,3.731c-.038,1.326-.019,2.561.047,3.693a59.672,59.672,0,0,0,1.193,8.47A84.662,84.662,0,0,0,110.45,38.4q1.534,4.63,3.442,8.953a57.571,57.571,0,0,0,3.986,7.617,26.78,26.78,0,0,0,4.18,5.269A5.592,5.592,0,0,0,126.1,62.1" transform="translate(331.401 21.072)" fill="#6e4e3a"/>
      <path id="Path_9" data-name="Path 9" d="M124.981,35.217q.121,3.181.265,6.926t.4,7.546q.256,3.8.677,7.362t.985,6.5l-22.706.866q.341-2.968.488-6.557t.118-7.338q-.028-3.75-.175-7.556t-.265-6.978q-.249-6.477-.677-13.336a100.4,100.4,0,0,0-1.567-12.731L123.9,6.83l.611,16.011.454-.019q2.074-8.38,6.046-12.962a14.028,14.028,0,0,1,10.557-4.838q6.136-.234,9.251,2.49t3.319,7.944a19.219,19.219,0,0,1-.871,7.03,13.138,13.138,0,0,1-2.831,4.824,11.81,11.81,0,0,1-4.1,2.826,13.569,13.569,0,0,1-4.677,1.032,11.836,11.836,0,0,1-7.816-2.2,7.46,7.46,0,0,0,3.153-3.873,20.717,20.717,0,0,0,1.591-5.975,12.359,12.359,0,0,0-.492-5.44,2.9,2.9,0,0,0-2.987-2.272,5.266,5.266,0,0,0-3.281,1.889,18.14,18.14,0,0,0-3.286,4.843,37.952,37.952,0,0,0-3.612,15.6Z" transform="translate(382.862 18.685)" fill="#6e4e3a"/>
      <path id="Path_10" data-name="Path 10" d="M149.821,66.747q-1.846,4.58-3.693,9.213a45.66,45.66,0,0,1-4.337,8.375,22.5,22.5,0,0,1-5.97,6.136,15.547,15.547,0,0,1-8.7,2.486,17.778,17.778,0,0,1-5.3-.7A13.251,13.251,0,0,1,117.23,89.9a12.573,12.573,0,0,1-3.314-4.143,13.761,13.761,0,0,1-1.359-6.055,13.236,13.236,0,0,1,2.571-8.574,9.207,9.207,0,0,1,7.551-3.546,11.607,11.607,0,0,1,3.413.393,8.509,8.509,0,0,0,.7,7.149q1.868,2.919,6.751,2.831a11.894,11.894,0,0,0,9.189-4.147,45.246,45.246,0,0,0,6.78-11.6l-11.471.208q-1.7-5.646-3.982-12.484t-5.042-14.624q-1.555-4.4-3.163-8.635t-3.163-8.01q-1.548-3.778-2.912-7.049t-2.547-5.639l24.083-.44q.057,2.841.473,7.1a43.416,43.416,0,0,0,1.984,9.114q1.207,3.728,2.585,7.679t2.807,7.617q1.427,3.671,2.736,6.884t2.377,5.582l7.48-19.68a21.536,21.536,0,0,0,1.335-7.982,25.562,25.562,0,0,0-1.695-8.607,33.737,33.737,0,0,0-4.289-7.987l17.948-.331a74.833,74.833,0,0,0-5.047,9.809q-2.4,5.56-4.247,10.363L151.672,62.169Z" transform="translate(420.31 18.363)" fill="#6e4e3a"/>
      <path id="Path_11" data-name="Path 11" d="M163.128,64.194a33.1,33.1,0,0,1-13.2-2.637,26.893,26.893,0,0,1-9.279-6.723,26.642,26.642,0,0,1-5.425-9.8,37.77,37.77,0,0,1-1.643-11.845,35.619,35.619,0,0,1,1.984-11.561,24.267,24.267,0,0,1,5.7-9.123,25.69,25.69,0,0,1,9.464-5.885,41.331,41.331,0,0,1,26.356.383,24.241,24.241,0,0,1,9.17,6.211,25.519,25.519,0,0,1,5.321,9.4A36.772,36.772,0,0,1,193.22,34.4a37.356,37.356,0,0,1-1.984,11.732,27.019,27.019,0,0,1-5.6,9.521A25.447,25.447,0,0,1,176.285,62a33.469,33.469,0,0,1-13.157,2.2m5.719-2.646a2.974,2.974,0,0,0,2.519-1.155,8.207,8.207,0,0,0,1.406-2.992,25.088,25.088,0,0,0,.682-3.8c.133-1.326.208-2.514.223-3.579a69.4,69.4,0,0,0-.544-9.549q-.611-4.9-1.676-9.63a74.549,74.549,0,0,0-2.6-8.957,48.437,48.437,0,0,0-3.357-7.433,22.829,22.829,0,0,0-3.792-5.113A5.927,5.927,0,0,0,157.7,7.407a3.02,3.02,0,0,0-2.457,1.16,9.016,9.016,0,0,0-1.577,2.878,15.771,15.771,0,0,0-.8,3.679c-.128,1.326-.2,2.552-.222,3.688a58.757,58.757,0,0,0,.559,8.531,82.712,82.712,0,0,0,1.794,9.4q1.179,4.737,2.765,9.189a59.051,59.051,0,0,0,3.409,7.887,26.737,26.737,0,0,0,3.783,5.568,5.579,5.579,0,0,0,3.887,2.159" transform="translate(498.815 17.384)" fill="#6e4e3a"/>
      <path id="Path_12" data-name="Path 12" d="M152.72,81.266q.589-4.076,1.042-9.061T154.5,61.94q.284-5.276.464-10.5t.327-9.767l.5-14.875-8.744-.294.076-2.268,16.466.549.014-.341a18.831,18.831,0,0,1-8.683-2.111,12.905,12.905,0,0,1-5.07-4.715,9.13,9.13,0,0,1-1.169-6.008,10.364,10.364,0,0,1,3.039-5.866,18.781,18.781,0,0,1,7.419-4.3A34.271,34.271,0,0,1,171.24.03q9.2.305,13.995,3.082t4.592,8.8a10.544,10.544,0,0,1-.994,4.341,8.591,8.591,0,0,1-2.377,2.992,9.3,9.3,0,0,1-3.352,1.652,12.949,12.949,0,0,1-3.825.436,12.5,12.5,0,0,1-4.4-.942,10.129,10.129,0,0,1-3.669-2.509,16.6,16.6,0,0,0,3.466-3.3,8.887,8.887,0,0,0,1.6-5.288,9.345,9.345,0,0,0-1.1-4.644Q174,2.4,170.824,2.288q-3.629-.121-5.388,1.354a5.556,5.556,0,0,0-2,3.8,12.242,12.242,0,0,0,.677,5.137,20.763,20.763,0,0,0,2.717,5.378,23.049,23.049,0,0,0,4.228,4.573,12.788,12.788,0,0,0,5.028,2.67L188,25.6l-.076,2.268-11.921-.4-.459,13.63c-.1,3.1-.218,6.453-.336,10.046s-.2,7.215-.251,10.851-.033,7.177.047,10.628.213,6.585.421,9.4Z" transform="translate(549.12 0)" fill="#6e4e3a"/>
      <path id="Path_13" data-name="Path 13" d="M164.71,63.406a9.921,9.921,0,0,1-1.15-3.376,16.531,16.531,0,0,1-.208-3.887,13.892,13.892,0,0,1,.88-4.038,9.7,9.7,0,0,1,5.605-5.738,11.006,11.006,0,0,1,4.881-.653,14.222,14.222,0,0,1,7.722,3,68.689,68.689,0,0,1,6.959,6.022q3.323,3.288,6.278,5.979a9.73,9.73,0,0,0,5.8,2.878,5.345,5.345,0,0,0,3.65-1.079,4.431,4.431,0,0,0,1.761-3.475,9.4,9.4,0,0,0-2.594-7.565,28.326,28.326,0,0,0-7.352-5.194q-4.46-2.272-9.686-4.318a51.768,51.768,0,0,1-9.644-4.943,25.375,25.375,0,0,1-7.239-7.064q-2.805-4.161-2.405-10.515A11.815,11.815,0,0,1,170.4,12.65,15.046,15.046,0,0,1,175.9,8.389a26.6,26.6,0,0,1,7.707-2.126,45.966,45.966,0,0,1,8.9-.289,94.4,94.4,0,0,1,10.444,1.349,93.676,93.676,0,0,0,13.412,1.311L212.257,28.41l-.568-.033a71.245,71.245,0,0,0-3.238-6.358,38.586,38.586,0,0,0-4.6-6.439,27.249,27.249,0,0,0-5.994-5.108,15.621,15.621,0,0,0-7.419-2.353q-8.28-.526-8.721,6.391a5.549,5.549,0,0,0,2.419,4.876,33.4,33.4,0,0,0,6.585,3.892q3.984,1.853,8.687,3.915a47.618,47.618,0,0,1,8.626,4.876,24.2,24.2,0,0,1,6.4,6.727,15.418,15.418,0,0,1,2.13,9.473q-.526,8.167-5.724,12.958t-14.274,4.209a28.911,28.911,0,0,1-5.743-.937c-1.87-.5-3.731-1.013-5.6-1.548s-3.707-1.051-5.539-1.548a28.352,28.352,0,0,0-5.686-.933,17.026,17.026,0,0,0-5.151.412,7.885,7.885,0,0,0-4.147,2.523" transform="translate(609.871 21.96)" fill="#6e4e3a"/>
      <path id="Path_14" data-name="Path 14" d="M175.331,61.778q.71-2.9,1.3-6.443c.393-2.362.743-4.786,1.037-7.267s.549-4.99.767-7.518.426-4.848.611-6.964q.561-6.448.994-13.313a101.085,101.085,0,0,0,.038-12.83l21.588-.393-1.3,14.828.568.052a26.2,26.2,0,0,1,2.424-6.178,18.224,18.224,0,0,1,3.906-4.9,15.49,15.49,0,0,1,5.516-3.11,17.88,17.88,0,0,1,7.135-.686,25.56,25.56,0,0,1,9.975,2.637,15.279,15.279,0,0,1,5.866,5.359,18.725,18.725,0,0,1,2.547,7.409,39.759,39.759,0,0,1,.151,8.683q-.277,3.167-.677,7.7t-.705,9.4q-.312,4.879-.573,9.814t-.275,9.047l-22.639-1.979q.8-3.92,1.51-8.82t1.259-9.814q.54-4.914.937-9.445t.672-7.693a19.618,19.618,0,0,0-.109-5.317,8.777,8.777,0,0,0-1.2-3.238,4.464,4.464,0,0,0-2.069-1.723,10.181,10.181,0,0,0-2.855-.649,8.886,8.886,0,0,0-8.792,4.024q-3.018,4.531-3.75,12.9-.277,3.174-.606,6.907t-.54,7.537q-.22,3.8-.251,7.39t.166,6.571Z" transform="translate(654.737 26.002)" fill="#6e4e3a"/>
      <path id="Path_15" data-name="Path 15" d="M207.029,32.114a31.285,31.285,0,0,0,.824,6.439A16.954,16.954,0,0,0,210.31,44.2a14.568,14.568,0,0,0,4.607,4.289,17.472,17.472,0,0,0,7.182,2.235,18.5,18.5,0,0,0,7.016-.417,18.718,18.718,0,0,0,5.17-2.22,15.432,15.432,0,0,0,3.342-2.831,15.776,15.776,0,0,0,1.681-2.211c.6.066,1.051.786,1.359,2.154a14.785,14.785,0,0,1,.066,5.037,25.317,25.317,0,0,1-1.8,6.372,18.082,18.082,0,0,1-4.228,6.1,19.066,19.066,0,0,1-7.277,4.214,25.615,25.615,0,0,1-11,.767,37.043,37.043,0,0,1-13.19-3.7,23.866,23.866,0,0,1-12.92-17.4,41.833,41.833,0,0,1-.327-12.385,40,40,0,0,1,2.59-10.344,24.152,24.152,0,0,1,15.5-14.44,38.887,38.887,0,0,1,23.851,1.411,18.86,18.86,0,0,1,6.216,4.242,12.89,12.89,0,0,1,3.091,5.549,17.021,17.021,0,0,1,.45,6.226,19.79,19.79,0,0,1-1.733,6.263,14.673,14.673,0,0,1-3.759,4.952,14.43,14.43,0,0,1-5.989,2.992,23.759,23.759,0,0,1-8.446.365,19.972,19.972,0,0,1-9.364-3.163,14.265,14.265,0,0,1-5.146-6.121Zm.27-6.486a4.957,4.957,0,0,0,.814,2.949A9.94,9.94,0,0,0,210.357,31a11.67,11.67,0,0,0,3.068,1.714,13.46,13.46,0,0,0,3.276.824,11.287,11.287,0,0,0,9.44-3.115,12.524,12.524,0,0,0,2.727-3.925,15.726,15.726,0,0,0,1.259-4.606,10.637,10.637,0,0,0-1.794-7.461,8.738,8.738,0,0,0-6.552-3.764,11.555,11.555,0,0,0-4.625.459,11.413,11.413,0,0,0-4.4,2.538,15.922,15.922,0,0,0-3.5,4.748,21.4,21.4,0,0,0-1.951,7.215" transform="translate(708.336 30.343)" fill="#6e4e3a"/>
      <path id="Path_16" data-name="Path 16" d="M238.716,59.953a16.808,16.808,0,0,1-7.693,6.339q-5.205,2.322-13.3,1.212a28.135,28.135,0,0,1-7.357-1.988,17.169,17.169,0,0,1-5.563-3.745,14.163,14.163,0,0,1-3.314-5.5,16.088,16.088,0,0,1-.492-7.239,13.607,13.607,0,0,1,3.352-7.684,17.58,17.58,0,0,1,6.5-4.322,29.421,29.421,0,0,1,8.28-1.842,63.565,63.565,0,0,1,8.735-.118q4.261.241,7.868.739c2.405.331,4.275.587,5.629.772l.563.08c.336-2.4.6-4.943.819-7.632a27.175,27.175,0,0,0-.393-7.565,13.183,13.183,0,0,0-2.893-6.074,10.083,10.083,0,0,0-6.566-3.139,9.06,9.06,0,0,0-5.842.8,5.076,5.076,0,0,0-2.594,3.887,3.607,3.607,0,0,0,1.188,3.432,6.382,6.382,0,0,0,3.4,1.558,3.885,3.885,0,0,0,2.694-.431,13.346,13.346,0,0,1-1.174,3.967,8.836,8.836,0,0,1-2.49,3.1,9.969,9.969,0,0,1-3.929,1.813,15.1,15.1,0,0,1-5.459.109,10.716,10.716,0,0,1-7.03-3.489,8.568,8.568,0,0,1-1.846-7.021,9.724,9.724,0,0,1,2.746-5.818,14.209,14.209,0,0,1,5.563-3.3A26.048,26.048,0,0,1,225.4,9.609a45.266,45.266,0,0,1,7.8.383,60.155,60.155,0,0,1,14.752,3.693,26.2,26.2,0,0,1,9.407,6.226,18.772,18.772,0,0,1,4.564,8.541,29.511,29.511,0,0,1,.289,10.766l-2.164,15.76q-.54,3.941-.975,7.892a63.729,63.729,0,0,0-.222,9.147l-19.7-2.708Zm2.869-20.821a25.5,25.5,0,0,0-7,.009,19.3,19.3,0,0,0-6.42,2.045,14.92,14.92,0,0,0-4.943,4.251,13.949,13.949,0,0,0-2.575,6.642c-.5,3.6-.161,6.344.989,8.223a7.436,7.436,0,0,0,5.672,3.361,8.987,8.987,0,0,0,4.838-.544A11.673,11.673,0,0,0,235.88,60.6a13.217,13.217,0,0,0,2.561-3.66,13.38,13.38,0,0,0,1.236-3.963Z" transform="translate(749.855 35.771)" fill="#6e4e3a"/>
      <path id="Path_17" data-name="Path 17" d="M214.236,84.816q1.122-3.963,2.235-8.844T218.563,65.9q.987-5.191,1.851-10.349t1.614-9.634q.76-4.481,1.619-9.634t1.629-10.387q.76-5.227,1.316-10.264t.8-9.251l22.9,1.534q-1.143,4.076-2.277,9.123t-2.149,10.411q-1.023,5.362-1.965,10.676t-1.723,9.9l-2.2,13.114L261.087,45.9a20.3,20.3,0,0,0,3.139-2.874,4.939,4.939,0,0,0,.942-2.2,6.434,6.434,0,0,0-.08-2.609,13.02,13.02,0,0,0-1-2.642L280,38.245q-4.19,1.6-8.02,3.494a51.085,51.085,0,0,0-7.1,4.223l-4.076,3,10.255,35.706c.677,2.343,1.34,4.374,1.974,6.093s1.2,3.125,1.709,4.209l-24.76-4.157a23.792,23.792,0,0,0-.009-6.8,78.82,78.82,0,0,0-1.482-8.029q-.973-4.133-2.211-8.086t-2.244-6.888L239.574,64.3q-.987,6.512-1.808,12.825t-1.117,11.452Z" transform="translate(800.019 23.819)" fill="#6e4e3a"/>
      <path id="Path_18" data-name="Path 18" d="M246.067,37.208a31.348,31.348,0,0,0,.279,6.486,16.949,16.949,0,0,0,1.974,5.833,14.539,14.539,0,0,0,4.228,4.663,17.484,17.484,0,0,0,6.974,2.826,18.255,18.255,0,0,0,12.361-1.6,15.269,15.269,0,0,0,3.57-2.538,15.79,15.79,0,0,0,1.861-2.064c.6.118.985.871,1.174,2.258a14.872,14.872,0,0,1-.355,5.028,25.366,25.366,0,0,1-2.334,6.2,18.033,18.033,0,0,1-4.725,5.724,19.115,19.115,0,0,1-7.6,3.589,25.747,25.747,0,0,1-11.031-.156,37.282,37.282,0,0,1-12.835-4.8A23.87,23.87,0,0,1,228.2,50.237a41.874,41.874,0,0,1,.71-12.371,40.365,40.365,0,0,1,3.447-10.089,24.181,24.181,0,0,1,16.665-13.09A38.855,38.855,0,0,1,272.669,18.1a18.7,18.7,0,0,1,5.837,4.748,12.889,12.889,0,0,1,2.618,5.785,16.968,16.968,0,0,1-.076,6.24,19.777,19.777,0,0,1-2.254,6.1,14.7,14.7,0,0,1-4.157,4.616,14.384,14.384,0,0,1-6.221,2.476,23.647,23.647,0,0,1-8.446-.341,19.961,19.961,0,0,1-9.066-3.934,14.293,14.293,0,0,1-4.616-6.533Zm.814-6.439a4.963,4.963,0,0,0,.559,3.006,9.894,9.894,0,0,0,2.036,2.6,11.716,11.716,0,0,0,2.912,1.969,13.5,13.5,0,0,0,3.2,1.094,11.3,11.3,0,0,0,9.667-2.315,12.586,12.586,0,0,0,3.044-3.683,15.415,15.415,0,0,0,1.638-4.479,10.652,10.652,0,0,0-1.16-7.584,8.735,8.735,0,0,0-6.211-4.3,11.589,11.589,0,0,0-4.649.066,11.409,11.409,0,0,0-4.6,2.159,15.925,15.925,0,0,0-3.892,4.441,21.336,21.336,0,0,0-2.547,7.026" transform="translate(851.478 52.352)" fill="#6e4e3a"/>
      <path id="Path_19" data-name="Path 19" d="M265.966,46.488q-.717,3.1-1.558,6.756t-1.581,7.385c-.5,2.495-.918,4.919-1.274,7.291s-.6,4.545-.743,6.529l-22.147-5.094q1.108-2.777,2.187-6.2t2.031-7.054q.952-3.622,1.809-7.338t1.567-6.808q1.449-6.313,2.826-13.048a100.587,100.587,0,0,0,1.813-12.7l21.442,2.6-3.6,15.614.445.1q4.19-7.542,9.222-10.936a14.024,14.024,0,0,1,11.457-1.908q5.979,1.378,8.276,4.82t1.122,8.536a19.148,19.148,0,0,1-2.67,6.552A13.109,13.109,0,0,1,292.6,45.5a11.79,11.79,0,0,1-4.7,1.662,13.6,13.6,0,0,1-4.786-.227,11.846,11.846,0,0,1-6.974-4.171,7.446,7.446,0,0,0,4.057-2.912,20.818,20.818,0,0,0,3.1-5.35,12.29,12.29,0,0,0,.942-5.378,2.9,2.9,0,0,0-2.287-2.978,5.277,5.277,0,0,0-3.66.966,18.322,18.322,0,0,0-4.436,3.816,36.783,36.783,0,0,0-4.28,6.188,36.3,36.3,0,0,0-3.286,7.93Z" transform="translate(891.236 60.524)" fill="#6e4e3a"/>
      <path id="Path_20" data-name="Path 20" d="M250.314,71.626a10.073,10.073,0,0,1-.469-3.537,16.8,16.8,0,0,1,.563-3.849,13.889,13.889,0,0,1,1.657-3.787,9.839,9.839,0,0,1,2.793-2.959,10.025,10.025,0,0,1,3.83-1.567,11.005,11.005,0,0,1,4.914.312,14.236,14.236,0,0,1,6.978,4.455,68.82,68.82,0,0,1,5.648,7.277q2.606,3.863,4.981,7.092a9.748,9.748,0,0,0,5.113,3.958,5.362,5.362,0,0,0,3.8-.341,4.459,4.459,0,0,0,2.41-3.063,9.372,9.372,0,0,0-1.06-7.925,28.483,28.483,0,0,0-6.188-6.533q-3.934-3.11-8.649-6.136a52.362,52.362,0,0,1-8.493-6.742,25.309,25.309,0,0,1-5.7-8.347q-1.939-4.63-.3-10.78a11.775,11.775,0,0,1,3.712-6.183,15.012,15.012,0,0,1,6.24-3.1,26.455,26.455,0,0,1,7.973-.573,45.843,45.843,0,0,1,8.787,1.463,93.858,93.858,0,0,1,9.975,3.376,94.675,94.675,0,0,0,12.891,3.915L303.8,46.644l-.549-.147q-.7-3.125-1.932-6.869a38.376,38.376,0,0,0-3.243-7.215,27.116,27.116,0,0,0-4.871-6.183,15.608,15.608,0,0,0-6.817-3.764q-8.018-2.145-9.8,4.554A5.542,5.542,0,0,0,278,32.275a33.12,33.12,0,0,0,5.691,5.113q3.544,2.592,7.75,5.539a47.169,47.169,0,0,1,7.5,6.477,24.134,24.134,0,0,1,4.961,7.849,15.425,15.425,0,0,1,.227,9.705q-2.116,7.9-8.152,11.58t-14.818,1.335a29.827,29.827,0,0,1-5.459-2.045q-2.592-1.285-5.175-2.623c-1.728-.89-3.432-1.756-5.127-2.6a29.1,29.1,0,0,0-5.4-2.031,17.2,17.2,0,0,0-5.132-.606,7.921,7.921,0,0,0-4.559,1.662" transform="translate(932.974 71.81)" fill="#6e4e3a"/>
    </g>
  </g>
</svg>
